<svg width="16" height="16" viewBox="0 0 16 16" fill="none" xmlns="http://www.w3.org/2000/svg">
<g id="vuesax/outline/search-normal">
<g id="search-normal">
<path id="Vector" d="M7.66671 14.5C3.90004 14.5 0.833374 11.4334 0.833374 7.66671C0.833374 3.90004 3.90004 0.833374 7.66671 0.833374C11.4334 0.833374 14.5 3.90004 14.5 7.66671C14.5 11.4334 11.4334 14.5 7.66671 14.5ZM7.66671 1.83337C4.44671 1.83337 1.83337 4.45337 1.83337 7.66671C1.83337 10.88 4.44671 13.5 7.66671 13.5C10.8867 13.5 13.5 10.88 13.5 7.66671C13.5 4.45337 10.8867 1.83337 7.66671 1.83337Z" fill="#646B75"/>
<path id="Vector_2" d="M14.6666 15.1666C14.54 15.1666 14.4133 15.12 14.3133 15.02L12.98 13.6866C12.7866 13.4933 12.7866 13.1733 12.98 12.98C13.1733 12.7866 13.4933 12.7866 13.6866 12.98L15.02 14.3133C15.2133 14.5066 15.2133 14.8266 15.02 15.02C14.92 15.12 14.7933 15.1666 14.6666 15.1666Z" fill="#646B75"/>
</g>
</g>
</svg>
